<svg id="Layer_1" data-name="Layer 1" xmlns="http://www.w3.org/2000/svg" viewBox="0 0 211.14 61.4"><defs><style>.cls-1{fill:#231f20;}</style></defs><title>1</title><path class="cls-1" d="M32,46.7l5.51,6A17.45,17.45,0,0,1,25,58a18.28,18.28,0,0,1-13.22-5.24A17.24,17.24,0,0,1,6.33,39.83,17.39,17.39,0,0,1,11.63,27a17.79,17.79,0,0,1,13.06-5.27,17.6,17.6,0,0,1,12.85,5.16L32,33q-2.18-2.46-6.46-2.59a7.47,7.47,0,0,0-5.91,2.69,10.22,10.22,0,0,0-2.18,6.76,10.26,10.26,0,0,0,2.21,6.8,7.29,7.29,0,0,0,5.88,2.66A8.1,8.1,0,0,0,32,46.7Z" transform="translate(-6.33 -11.95)"/><path class="cls-1" d="M65.49,22.29h10.2V57.72H65.49V54.79A16.73,16.73,0,0,1,55.56,58a16.08,16.08,0,0,1-12.2-5.24,18.1,18.1,0,0,1-4.93-12.92A18.2,18.2,0,0,1,43.29,27a15.72,15.72,0,0,1,12-5.23,17,17,0,0,1,10.2,3.19Zm-8.43,27a7.09,7.09,0,0,0,5.88-2.72,11.2,11.2,0,0,0,2.28-6.74A10.89,10.89,0,0,0,62.94,33a7.85,7.85,0,0,0-11.8,0A10.22,10.22,0,0,0,49,39.83a10.21,10.21,0,0,0,2.21,6.84A7.32,7.32,0,0,0,57.06,49.29Z" transform="translate(-6.33 -11.95)"/><path class="cls-1" d="M92.76,73.36H82.49V22.15H92.76v2.93a16.35,16.35,0,0,1,9.93-3.2,16.13,16.13,0,0,1,12.17,5.24,18.06,18.06,0,0,1,5,12.92,18.13,18.13,0,0,1-4.89,12.85,15.86,15.86,0,0,1-12,5.24A16.56,16.56,0,0,1,92.76,55ZM107,33.24a7.37,7.37,0,0,0-5.92-2.65,7.13,7.13,0,0,0-5.88,2.78A10.43,10.43,0,0,0,93,40a10.14,10.14,0,0,0,2.24,6.83,7.92,7.92,0,0,0,11.77,0A10.14,10.14,0,0,0,109.28,40,10.19,10.19,0,0,0,107,33.24Z" transform="translate(-6.33 -11.95)"/><path class="cls-1" d="M139.82,50.44a2.68,2.68,0,0,0,1.42.44,4.27,4.27,0,0,0,1.5-.17c.45-.13,1-.3,1.6-.51a8.39,8.39,0,0,1,1.39-.37l1,6.87a26.66,26.66,0,0,1-8.57,1.63,11.8,11.8,0,0,1-3.36-.44,11.14,11.14,0,0,1-2.42-1,4.6,4.6,0,0,1-1.59-1.77,14.18,14.18,0,0,1-1-2.11,12.93,12.93,0,0,1-.47-2.68c-.12-1.18-.18-2.11-.2-2.79s0-1.72,0-3.13v-14H124v-8.5h5.1V13.59L139.34,12v9.93h7.95v8.5h-7.95c0,.18,0,1.34,0,3.47s0,4.55-.06,7.24,0,4.82,0,6.36C139.2,49.17,139.41,50.17,139.82,50.44Z" transform="translate(-6.33 -11.95)"/><path class="cls-1" d="M177.76,22.29H188V57.72h-10.2V54.79a16.73,16.73,0,0,1-9.93,3.2,16.11,16.11,0,0,1-12.21-5.24,18.15,18.15,0,0,1-4.93-12.92A18.16,18.16,0,0,1,155.56,27a15.72,15.72,0,0,1,12-5.23,17,17,0,0,1,10.2,3.19Zm-8.43,27a7.09,7.09,0,0,0,5.88-2.72,11.26,11.26,0,0,0,2.28-6.74,11,11,0,0,0-2.28-6.8,7.85,7.85,0,0,0-11.8,0,10.22,10.22,0,0,0-2.18,6.76,10.26,10.26,0,0,0,2.21,6.84A7.35,7.35,0,0,0,169.33,49.29Z" transform="translate(-6.33 -11.95)"/><path class="cls-1" d="M217.47,21.75v9.86a7.19,7.19,0,0,0-4.22-1.23,7.29,7.29,0,0,0-5.5,2.35,8.79,8.79,0,0,0-2.25,6.36V57.72H195.23V21.88H205.5V26.3a14.56,14.56,0,0,1,5.34-3.6A19.87,19.87,0,0,1,217.47,21.75Z" transform="translate(-6.33 -11.95)"/></svg>